<svg xmlns="http://www.w3.org/2000/svg" viewBox="0 0 640 640">
	<rect fill="#2A2A2A" width="640" height="640" rx="96" />
	<path fill="#FF7F11" d="M 448 400 V 528 C 448 554.508 426.51 576 400 576 H 112 C 85.49 576 64 554.508 64 528 V 112 C 64 85.492 85.49 64 112 64 H 320 V 192 H 448 V 352 H 280 C 266.75 352 256 362.75 256 376 S 266.75 400 280 400 H 448 Z"/>
	<path fill="#D8D8D8" d="M 320 64 V 192 H 448 L 320 64 Z M 568.969 359.031 L 488.969 279.031 C 479.594 269.656 464.406 269.656 455.031 279.031 S 445.656 303.594 455.031 312.969 L 494.062 352 H 216 C 202.75 352 192 362.75 192 376 S 202.75 400 216 400 H 494.062 L 455.031 439.031 C 450.344 443.719 448 449.844 448 456 S 450.344 468.281 455.031 472.969 C 464.406 482.344 479.594 482.344 488.969 472.969 L 568.969 392.969 C 578.344 383.594 578.344 368.406 568.969 359.031 Z" class="fa-primary"/>
</svg>